<svg xmlns="http://www.w3.org/2000/svg" viewBox="0 0 800 400">
  <defs>
    <linearGradient id="bg2" x1="0" y1="0" x2="1" y2="1">
      <stop offset="0%" stop-color="#fff7ed"/>
      <stop offset="100%" stop-color="#ffedd5"/>
    </linearGradient>
  </defs>
  <rect width="800" height="400" fill="url(#bg2)"/>
  <rect x="70" y="52" width="660" height="296" rx="18" fill="#ffffff" stroke="#fdba74"/>
  <rect x="70" y="52" width="660" height="52" rx="18" fill="#f97316"/>
  <circle cx="110" cy="78" r="8" fill="#fff"/>
  <circle cx="138" cy="78" r="8" fill="#fff"/>
  <circle cx="166" cy="78" r="8" fill="#fff"/>

  <rect x="110" y="132" width="140" height="42" rx="8" fill="#10b981" opacity="0.22"/>
  <rect x="270" y="132" width="140" height="42" rx="8" fill="#0ea5e9" opacity="0.25"/>
  <rect x="430" y="132" width="140" height="42" rx="8" fill="#e11d48" opacity="0.22"/>
  <rect x="590" y="132" width="100" height="42" rx="8" fill="#f59e0b" opacity="0.3"/>

  <rect x="110" y="194" width="300" height="14" rx="7" fill="#cbd5e1"/>
  <rect x="110" y="222" width="220" height="14" rx="7" fill="#cbd5e1"/>
  <rect x="110" y="250" width="270" height="14" rx="7" fill="#cbd5e1"/>

  <rect x="470" y="194" width="220" height="86" rx="12" fill="#f8fafc" stroke="#cbd5e1"/>
  <rect x="490" y="214" width="180" height="10" rx="5" fill="#e2e8f0"/>
  <rect x="490" y="236" width="140" height="10" rx="5" fill="#e2e8f0"/>
  <rect x="490" y="258" width="160" height="10" rx="5" fill="#e2e8f0"/>
</svg>
