<svg xmlns="http://www.w3.org/2000/svg" viewBox="0 0 800 400">
  <defs>
    <linearGradient id="bg3" x1="0" y1="0" x2="1" y2="1">
      <stop offset="0%" stop-color="#eef2ff"/>
      <stop offset="100%" stop-color="#e0e7ff"/>
    </linearGradient>
  </defs>
  <rect width="800" height="400" fill="url(#bg3)"/>

  <rect x="70" y="56" width="300" height="288" rx="16" fill="#ffffff" stroke="#c7d2fe"/>
  <rect x="100" y="94" width="240" height="30" rx="8" fill="#e2e8f0"/>
  <rect x="100" y="140" width="240" height="30" rx="8" fill="#e2e8f0"/>
  <rect x="100" y="186" width="240" height="30" rx="8" fill="#e2e8f0"/>
  <rect x="100" y="232" width="240" height="30" rx="8" fill="#e2e8f0"/>
  <rect x="100" y="278" width="240" height="30" rx="8" fill="#e2e8f0"/>
  <rect x="100" y="140" width="240" height="30" rx="8" fill="#e11d48" opacity="0.18"/>

  <rect x="410" y="56" width="320" height="288" rx="16" fill="#ffffff" stroke="#c7d2fe"/>
  <rect x="440" y="94" width="260" height="18" rx="9" fill="#0f172a"/>
  <rect x="440" y="132" width="120" height="12" rx="6" fill="#94a3b8"/>

  <rect x="440" y="172" width="260" height="70" rx="12" fill="#f8fafc" stroke="#cbd5e1"/>
  <rect x="460" y="192" width="160" height="10" rx="5" fill="#e2e8f0"/>
  <rect x="460" y="212" width="120" height="10" rx="5" fill="#e2e8f0"/>

  <rect x="440" y="258" width="260" height="70" rx="12" fill="#f8fafc" stroke="#cbd5e1"/>
  <rect x="460" y="278" width="170" height="10" rx="5" fill="#e2e8f0"/>
  <rect x="460" y="298" width="130" height="10" rx="5" fill="#e2e8f0"/>
</svg>
