<svg xmlns="http://www.w3.org/2000/svg" viewBox="0 0 800 400">
  <defs>
    <linearGradient id="bg" x1="0" y1="0" x2="1" y2="1">
      <stop offset="0%" stop-color="#f8fafc"/>
      <stop offset="100%" stop-color="#e2e8f0"/>
    </linearGradient>
  </defs>
  <rect width="800" height="400" fill="url(#bg)"/>
  <rect x="28" y="24" width="744" height="58" rx="12" fill="#ffffff" stroke="#cbd5e1"/>
  <rect x="44" y="44" width="460" height="16" rx="8" fill="#e11d48" opacity="0.16"/>
  <rect x="44" y="44" width="290" height="16" rx="8" fill="#e11d48"/>

  <rect x="58" y="120" width="684" height="104" rx="14" fill="#ffffff" stroke="#cbd5e1"/>
  <rect x="58" y="250" width="684" height="104" rx="14" fill="#ffffff" stroke="#cbd5e1"/>

  <line x1="175" y1="200" x2="175" y2="250" stroke="#64748b" stroke-width="3"/>
  <line x1="320" y1="200" x2="320" y2="250" stroke="#64748b" stroke-width="3"/>
  <line x1="465" y1="200" x2="465" y2="250" stroke="#64748b" stroke-width="3"/>

  <circle cx="175" cy="172" r="26" fill="#0ea5e9" stroke="#10b981" stroke-width="4"/>
  <circle cx="320" cy="172" r="26" fill="#f59e0b" stroke="#10b981" stroke-width="4"/>
  <circle cx="465" cy="172" r="26" fill="#ec4899" stroke="#10b981" stroke-width="4"/>

  <circle cx="175" cy="302" r="26" fill="#0ea5e9" stroke="#f59e0b" stroke-width="4"/>
  <circle cx="320" cy="302" r="26" fill="#f59e0b" stroke="#f59e0b" stroke-width="4"/>
  <circle cx="465" cy="302" r="26" fill="#ec4899" stroke="#f59e0b" stroke-width="4"/>
</svg>
